<svg xmlns="http://www.w3.org/2000/svg" width="130" height="29" fill="#fff" fill-rule="evenodd"><path d="M99.442 6.023H88.088a.22.22 0 0 0-.219.222v2.24a.22.22 0 0 0 .219.222h7.644l-8.077 9.908a.25.25 0 0 0-.05.14v1.87a.22.22 0 0 0 .22.222h11.618a.22.22 0 0 0 .219-.222v-2.24a.22.22 0 0 0-.219-.222h-7.908l8.077-9.9c.033-.04.05-.1.05-.14v-1.87a.22.22 0 0 0-.22-.222zm13.788 12.122h-7.9v-3.418h6.898a.22.22 0 0 0 .219-.222v-2.26a.22.22 0 0 0-.219-.222h-6.898V8.728h7.8a.22.22 0 0 0 .219-.222v-2.26a.22.22 0 0 0-.219-.222h-10.523c-.12 0-.22.1-.22.222v14.38a.22.22 0 0 0 .22.222h10.624a.22.22 0 0 0 .219-.222v-2.26a.22.22 0 0 0-.219-.222"/><path d="M129.083 6.023h-2.454a.22.22 0 0 0-.219.222v9.294l-7.2-9.44c-.04-.054-.105-.086-.173-.086h-2.3a.22.22 0 0 0-.219.222v14.38a.22.22 0 0 0 .219.222h2.453a.22.22 0 0 0 .219-.222v-9.58l7.434 9.718c.04.054.105.086.173.086h2.1a.22.22 0 0 0 .219-.222V6.246a.22.22 0 0 0-.22-.222M2.487 24.547h78.676V2.5H2.487v22.047zM83.297 0H.354C.16 0 0 .16 0 .356V26.7c0 .196.16.356.354.356h82.943c.195 0 .353-.16.353-.356V.356c0-.196-.158-.356-.353-.356z"/><path d="M33.412 6.1H22.85c-.12 0-.22.1-.22.222v14.38a.22.22 0 0 0 .219.222h2.494a.22.22 0 0 0 .219-.222V15.08H32.5a.22.22 0 0 0 .219-.222v-2.3a.22.22 0 0 0-.22-.222h-6.94v-3.48h7.85c.12 0 .22-.1.22-.222v-2.3a.22.22 0 0 0-.22-.222M47.413 6.1H36.85c-.12 0-.22.1-.22.222v14.38a.22.22 0 0 0 .219.222h2.494a.22.22 0 0 0 .219-.222V15.08H46.5a.22.22 0 0 0 .219-.222v-2.3a.22.22 0 0 0-.22-.222h-6.94v-3.48h7.85c.12 0 .22-.1.22-.222v-2.3a.22.22 0 0 0-.22-.222m14.15 12.12h-7.9v-3.418h6.897a.22.22 0 0 0 .219-.222v-2.26a.22.22 0 0 0-.219-.222H53.65V8.815h7.8a.22.22 0 0 0 .219-.222v-2.26a.22.22 0 0 0-.219-.222H50.937a.22.22 0 0 0-.219.222v14.38a.22.22 0 0 0 .219.222H61.56a.22.22 0 0 0 .219-.222v-2.26a.22.22 0 0 0-.219-.222m6.112-9.375h3.4c1.24 0 2.72.38 2.72 2.182 0 1.358-1.035 2.202-2.7 2.202h-3.43V8.856zm5.854 6.537c2.07-.7 3.25-2.314 3.25-4.5 0-2.95-2.104-4.783-5.5-4.783H64.96c-.12 0-.22.1-.22.222v14.38a.22.22 0 0 0 .219.222h2.494a.22.22 0 0 0 .219-.222v-4.8h2.8l3.422 4.92c.04.06.108.094.178.094h2.94c.125 0 .223-.1.223-.222 0-.063-.026-.12-.066-.16l-3.634-5.162zm-60.343 2.972c-2.524 0-4.427-2.113-4.427-4.914 0-2.778 1.886-4.873 4.388-4.873 2.524 0 4.427 2.113 4.427 4.914 0 2.778-1.887 4.873-4.388 4.873m.016-12.5c-4.16 0-7.298 3.3-7.298 7.68 0 4.355 3.12 7.64 7.26 7.64 4.16 0 7.298-3.302 7.298-7.68 0-4.354-3.12-7.638-7.26-7.638"/></svg>