<svg xmlns="http://www.w3.org/2000/svg" xmlns:xlink="http://www.w3.org/1999/xlink" width="56" height="52" viewBox="0 0 56 52">
    <defs>
        <path id="a" d="M0 2.374v-.045a1.767 1.767 0 1 1 0 .045z"/>
        <path id="c" d="M4.447 9.054a4.337 4.337 0 0 1 0-8.674h14.846a4.337 4.337 0 0 1 0 8.674H4.447z"/>
        <path id="e" d="M4.845 9.304a4.337 4.337 0 0 1 0-8.674H29.26a4.337 4.337 0 0 1 0 8.674H4.845z"/>
        <path id="g" d="M14.525 39.284l-.157-.001c-4.61-.14-8.073-1.576-10.296-4.267-5.907-7.14-1.226-20.997-.171-23.843v-.002a3.48 3.48 0 0 1 .059-.223C3.195 10.037.334 6.358.618 2.653A2.3 2.3 0 0 1 2.528.556c1.75-.303 4.444.148 7.434 3.95a18.123 18.123 0 0 1 3.172-.712l.03-.015.163-.006c.373-.048.798-.083 1.204-.1.36-.014.6-.012.876 0 .43.017.855.052 1.28.103l.097.013a18.04 18.04 0 0 1 3.21.718C23.264.363 26.238.295 27.737.637c.918.211 1.605.96 1.75 1.909.597 3.955-2.6 7.53-3.483 8.433l.005.022.042.153c1.036 2.79 5.696 16.526-.05 23.719-2.21 2.78-5.71 4.264-10.404 4.41-.003 0-.233.005-.628-.007-.189.006-.34.008-.444.008z"/>
        <path id="i" d="M7.278 8.685a1.395 1.395 0 0 1-1.951-.29L.78 2.26A1.063 1.063 0 0 1 1 .774l.535-.395a1.062 1.062 0 0 1 1.487.22l4.547 6.134a1.395 1.395 0 0 1-.29 1.952z"/>
        <path id="k" d="M3.69 2.08a1.767 1.767 0 1 1-3.533 0 1.767 1.767 0 0 1 3.533 0z"/>
        <path id="m" d="M3.73 1.976a1.767 1.767 0 1 1-3.534 0 1.767 1.767 0 0 1 3.533 0z"/>
        <path id="o" d="M1.885 3.987l-.003-.002-.004-.005-.88-.873-.001-.001a3.678 3.678 0 0 1-.4-.523V2.58a1.197 1.197 0 0 1-.108-.308v-.001c-.141-.726.657-1.815.657-1.815 1.342 1.182.74 3.53.74 3.53z"/>
        <path id="q" d="M4.715 8.758a4.337 4.337 0 0 1 0-8.674h1.75a4.337 4.337 0 0 1 0 8.674h-1.75z"/>
        <path id="s" d="M2.285 2.587a.351.351 0 0 1-.347-.3c-.057-.38-.202-.65-.431-.8C1.102 1.22.53 1.368.525 1.37A.352.352 0 0 1 .34.69c.034-.01.873-.233 1.546.204.407.264.658.698.747 1.289a.35.35 0 0 1-.348.403z"/>
        <path id="u" d="M.678 2.587a.35.35 0 0 1-.348-.404c.089-.59.34-1.024.747-1.288C1.75.46 2.588.682 2.623.691a.352.352 0 0 1-.186.679c-.015-.004-.58-.147-.98.117-.23.15-.375.42-.432.8a.351.351 0 0 1-.347.3z"/>
        <path id="w" d="M2.863 4.526C2.17 3.876 1.38 3.306.859 2.513a2.471 2.471 0 0 1-.363-.808C.387 1.215.51.668.958.39c.034-.02.104-.293.117-.388.14.41.462.72.762 1.016.307.302.632.595.862.963.039.062.074.125.105.19.308.63.193 1.668.059 2.356z"/>
        <path id="y" d="M4.441 7.182a.565.565 0 0 0-.126-.125c-.427-.34-1.71-1.02-1.71-1.02C1.03 5.29.485 3.747.485 3.747a2.24 2.24 0 0 1-.154-.36C-.15 1.915 1.104.54 1.104.54l-.04-.202c.034.163.1.338.205.524 0 0 .388.875 1.396 1.644 0 0 .488.408.735.699l.001.001.105.141c1.912 1.944.935 3.835.935 3.835z"/>
        <path id="A" d="M5.857 8.125a.65.65 0 0 0-.144-.132H5.71C5.006 7.477 2.188 6.15 2.188 6.15.983 5.482.468 4.604.248 3.959.071 3.45.08 3.087.08 3.087-.15 1.542.965.219.965.219c.039.12.089.24.153.36 0 0 .546 1.542 2.12 2.29 0 0 1.284.68 1.711 1.02l.126.125c2.05 1.86.782 4.11.782 4.11z"/>
        <path id="C" d="M7.851 8.073a.509.509 0 0 0-.131-.096c-.507-.28-1.96-.504-1.96-.504-1.163-.098-2.874-.635-2.874-.635-1.126-.4-1.784-1.451-2.119-2.182-.2-.438-.285-.76-.285-.76C-.128 1.358 1.514.156 1.514.156c.22.646.737 1.523 1.94 2.19 0 0 2.819 1.329 3.525 1.844l.146.132c1.813 1.948.726 3.75.726 3.75z"/>
        <path id="E" d="M21.554 8.096c-.052.341-.137.68-.26 1.01C18.934 15.5 9.136 18.273 3.31 15.634c-3.806-1.723-2.755-1.8-2.755-1.8 2.604-.19 3.351-3.15 4.013-5.193.775-2.392 2.013-4.615 4.068-6.086C11.651.398 16.28-.297 19.267 2.301c1.608 1.397 2.607 3.664 2.287 5.795z"/>
        <path id="G" d="M2.525 2.927a.351.351 0 0 1-.347-.414c.118-.654.045-1.116-.215-1.373C1.578.762.86.895.855.897A.35.35 0 0 1 .442.622.35.35 0 0 1 .716.208C.758.2 1.8-.002 2.452.635c.44.43.58 1.104.418 2.003a.352.352 0 0 1-.345.29z"/>
        <path id="I" d="M3.598 2.29c0 1.214-.703 2.198-1.568 2.198-.866 0-1.568-.984-1.568-2.199 0-1.214.702-2.198 1.568-2.198.865 0 1.568.984 1.568 2.198z"/>
        <path id="K" d="M.916.652a.374.374 0 1 1-.748.001.374.374 0 0 1 .748-.001z"/>
        <path id="M" d="M11.29 18.076c4.1-.296 7.183-3.849 6.885-7.934-.296-4.087-3.861-7.16-7.962-6.863-4.1.296-7.184 3.849-6.886 7.935.297 4.087 3.862 7.159 7.962 6.862zm10.04-8.165c.424 5.842-3.97 10.922-9.812 11.346C5.675 21.68.595 17.287.172 11.444-.252 5.601 4.142.522 9.984.1c5.843-.424 10.923 3.97 11.347 9.812z"/>
        <path id="O" d="M5.344 4.056c0 1.991-1.15 3.605-2.57 3.605S.203 6.047.203 4.056c0-1.99 1.15-3.606 2.57-3.606s2.57 1.615 2.57 3.606z"/>
        <path id="Q" d="M1.758 1.143a.614.614 0 1 1-1.23 0 .614.614 0 0 1 1.23 0z"/>
        <path id="S" d="M8.121 14.908c-4.1.297-7.665-2.775-7.962-6.862C-.14 3.96 2.945.407 7.045.11c4.1-.296 7.666 2.776 7.962 6.863.298 4.085-2.785 7.638-6.886 7.934z"/>
    </defs>
    <g fill="none" fill-rule="evenodd">
        <g transform="translate(0 26.611)">
            <mask id="b" fill="#fff">
                <use xlink:href="#a"/>
            </mask>
            <path fill="#F8F0F9" d="M-3.168 7.287h9.87v-9.87h-9.87z" mask="url(#b)"/>
        </g>
        <g transform="translate(5.069 13.94)">
            <mask id="d" fill="#fff">
                <use xlink:href="#c"/>
            </mask>
            <path fill="#E4F0FC" d="M-3.059 12.222h29.857v-15.01H-3.059z" mask="url(#d)"/>
        </g>
        <g transform="translate(21.542 39.917)">
            <mask id="f" fill="#fff">
                <use xlink:href="#e"/>
            </mask>
            <path fill="#E4F0FC" d="M-2.66 12.472h39.425v-15.01H-2.66z" mask="url(#f)"/>
        </g>
        <g transform="translate(13.94 11.405)">
            <mask id="h" fill="#fff">
                <use xlink:href="#g"/>
            </mask>
            <path fill="#FFF" d="M-2.57 42.452h35.3V-2.689h-35.3z" mask="url(#h)"/>
        </g>
        <path stroke="#343951" stroke-linecap="round" stroke-linejoin="round" stroke-width="1.267" d="M28.464 50.69c-.102 0-.157-.002-.157-.002-4.61-.14-8.072-1.576-10.295-4.267-5.907-7.14-1.227-20.998-.172-23.843v-.002c.018-.076.037-.149.06-.223-.766-.912-3.627-4.59-3.343-8.295a2.3 2.3 0 0 1 1.91-2.098c1.75-.303 4.445.149 7.435 3.951a18.123 18.123 0 0 1 3.172-.712l.029-.015.163-.007c.374-.047.798-.082 1.204-.1.36-.013.6-.011.877 0 .428.018.854.053 1.28.104l.096.013a18.04 18.04 0 0 1 3.21.718c3.27-4.144 6.244-4.212 7.743-3.87.919.21 1.605.96 1.751 1.909.596 3.955-2.6 7.53-3.484 8.433l.005.021.042.154c1.036 2.79 5.697 16.526-.05 23.719-2.209 2.78-5.71 4.264-10.404 4.409-.002.001-.233.006-.628-.006-.189.006-.34.008-.444.008z"/>
        <g transform="translate(39.917 40.55)">
            <mask id="j" fill="#fff">
                <use xlink:href="#i"/>
            </mask>
            <path fill="#FFF" d="M-2.597 12.127H11.01V-3H-2.597z" mask="url(#j)"/>
        </g>
        <path stroke="#343951" stroke-linecap="round" stroke-linejoin="round" stroke-width="1.267" d="M47.195 49.235a1.395 1.395 0 0 1-1.952-.29l-4.546-6.134a1.063 1.063 0 0 1 .22-1.487l.535-.395a1.062 1.062 0 0 1 1.487.221l4.546 6.133a1.395 1.395 0 0 1-.29 1.952z"/>
        <g transform="translate(51.955 15.206)">
            <mask id="l" fill="#fff">
                <use xlink:href="#k"/>
            </mask>
            <path fill="#F1E1F4" d="M-3.01 7.015h9.868v-9.87h-9.869z" mask="url(#l)"/>
        </g>
        <g transform="translate(47.52 25.978)">
            <mask id="n" fill="#fff">
                <use xlink:href="#m"/>
            </mask>
            <path fill="#FDF3EE" d="M-2.972 6.91h9.87v-9.87h-9.87z" mask="url(#n)"/>
        </g>
        <g transform="translate(27.878)">
            <mask id="p" fill="#fff">
                <use xlink:href="#o"/>
            </mask>
            <path fill="#5EA5EE" d="M-2.696 7.155h7.884V-2.71h-7.884z" mask="url(#p)"/>
        </g>
        <path stroke="#343951" stroke-linecap="round" stroke-linejoin="round" stroke-width=".824" d="M29.764 3.987l-.003-.002-.005-.005-.88-.873-.001-.001a3.677 3.677 0 0 1-.4-.523V2.58a1.196 1.196 0 0 1-.108-.308v-.001c-.14-.726.657-1.815.657-1.815 1.343 1.182.74 3.53.74 3.53z"/>
        <g transform="translate(1.267 34.848)">
            <mask id="r" fill="#fff">
                <use xlink:href="#q"/>
            </mask>
            <path fill="#E4F0FC" d="M-2.79 11.926h16.76v-15.01H-2.79z" mask="url(#r)"/>
        </g>
        <path stroke="#E5EBEF" stroke-linecap="round" stroke-linejoin="round" stroke-width=".792" d="M25.579 48.291c-2.582-.486-4.577-1.562-5.942-3.214-1.801-2.178-2.422-5.216-2.435-8.338"/>
        <g transform="translate(22.176 40.55)">
            <mask id="t" fill="#fff">
                <use xlink:href="#s"/>
            </mask>
            <path fill="#343951" d="M-3.086 5.755h8.891v-8.298h-8.89z" mask="url(#t)"/>
        </g>
        <g transform="translate(32.947 40.55)">
            <mask id="v" fill="#fff">
                <use xlink:href="#u"/>
            </mask>
            <path fill="#343951" d="M-2.842 5.755h8.891v-8.297h-8.891z" mask="url(#v)"/>
        </g>
        <g transform="translate(27.245 2.534)">
            <mask id="x" fill="#fff">
                <use xlink:href="#w"/>
            </mask>
            <path fill="#5EA5EE" d="M-2.71 7.694h8.878v-10.86H-2.71z" mask="url(#x)"/>
        </g>
        <path stroke="#343951" stroke-linecap="round" stroke-linejoin="round" stroke-width=".824" d="M30.108 7.06c-.693-.65-1.482-1.22-2.004-2.013a2.47 2.47 0 0 1-.363-.807c-.109-.49.013-1.038.462-1.317.034-.02.103-.292.117-.387.14.409.462.72.762 1.016.306.301.632.594.862.962.038.062.074.125.105.19.307.63.193 1.669.059 2.356z"/>
        <g transform="translate(26.611 3.802)">
            <mask id="z" fill="#fff">
                <use xlink:href="#y"/>
            </mask>
            <path fill="#5EA5EE" d="M-2.947 10.35H7.859V-2.83H-2.947z" mask="url(#z)"/>
        </g>
        <path stroke="#343951" stroke-width=".824" d="M31.053 10.984a.565.565 0 0 0-.127-.125c-.427-.341-1.71-1.02-1.71-1.02-1.574-.748-2.12-2.29-2.12-2.29a2.24 2.24 0 0 1-.154-.36c-.48-1.473.773-2.848.773-2.848l-.04-.202c.034.163.1.338.206.525 0 0 .387.874 1.395 1.643 0 0 .488.409.735.7h.001l.106.142c1.911 1.944.935 3.835.935 3.835z"/>
        <g transform="translate(25.978 6.97)">
            <mask id="B" fill="#fff">
                <use xlink:href="#A"/>
            </mask>
            <path fill="#5EA5EE" d="M-3.119 11.293H9.413V-2.95H-3.12z" mask="url(#B)"/>
        </g>
        <path stroke="#343951" stroke-linecap="round" stroke-linejoin="round" stroke-width=".824" d="M31.835 15.095a.65.65 0 0 0-.145-.132h-.001c-.705-.516-3.524-1.845-3.524-1.845-1.204-.667-1.72-1.544-1.94-2.19-.175-.508-.166-.871-.166-.871-.233-1.545.884-2.868.884-2.868.038.12.088.24.152.36 0 0 .547 1.542 2.121 2.29 0 0 1.283.679 1.71 1.02l.127.125c2.05 1.86.782 4.11.782 4.11z"/>
        <g transform="translate(24.71 10.771)">
            <mask id="D" fill="#fff">
                <use xlink:href="#C"/>
            </mask>
            <path fill="#5EA5EE" d="M-2.822 11.24h14.164V-3.01H-2.822z" mask="url(#D)"/>
        </g>
        <path stroke="#343951" stroke-linecap="round" stroke-linejoin="round" stroke-width=".824" d="M32.561 18.844a.509.509 0 0 0-.131-.096c-.507-.28-1.96-.504-1.96-.504-1.163-.098-2.873-.635-2.873-.635-1.127-.4-1.785-1.45-2.12-2.182-.2-.438-.284-.76-.284-.76-.611-2.536 1.031-3.739 1.031-3.739.221.646.737 1.523 1.941 2.19 0 0 2.818 1.329 3.524 1.844l.001.001.145.132c1.813 1.947.726 3.749.726 3.749z"/>
        <g transform="translate(13.306 13.306)">
            <mask id="F" fill="#fff">
                <use xlink:href="#E"/>
            </mask>
            <path fill="#5EA5EE" d="M-2.747 19.795H24.78V-2.541H-2.747z" mask="url(#F)"/>
        </g>
        <g stroke-linecap="round">
            <path stroke="#343951" stroke-linejoin="round" stroke-width="1.267" d="M34.86 21.402c.32-2.132-.68-4.398-2.287-5.796-2.988-2.598-7.616-1.902-10.632.255-2.056 1.47-3.293 3.693-4.068 6.086-.662 2.043-1.41 5.003-4.013 5.192 0 0-1.051.078 2.755 1.8 5.826 2.64 15.623-.133 17.986-6.527.122-.33.207-.67.258-1.01z"/>
            <path stroke="#FFF" stroke-width=".792" d="M28.827 16.083c-2.156-.659-4.73.286-6.427 1.859-1.38 1.281-2.123 3.024-2.522 4.845-.248 1.129-.663 2.505-1.82 3.481"/>
        </g>
        <g transform="translate(36.115 17.107)">
            <mask id="H" fill="#fff">
                <use xlink:href="#G"/>
            </mask>
            <path fill="#343951" d="M-2.733 6.095h8.836v-9.092h-8.836z" mask="url(#H)"/>
        </g>
        <g transform="translate(20.909 31.046)">
            <mask id="J" fill="#fff">
                <use xlink:href="#I"/>
            </mask>
            <path fill="#343951" d="M-2.706 7.656h9.472V-3.077h-9.472z" mask="url(#J)"/>
        </g>
        <g transform="translate(22.176 31.68)">
            <mask id="L" fill="#fff">
                <use xlink:href="#K"/>
            </mask>
            <path fill="#FFF" d="M-3.001 4.195h7.085V-2.89h-7.085z" mask="url(#L)"/>
        </g>
        <g transform="translate(24.077 22.176)">
            <mask id="N" fill="#fff">
                <use xlink:href="#M"/>
            </mask>
            <path fill="#FFF" d="M-3.024 24.453h27.55v-27.55h-27.55z" mask="url(#N)"/>
        </g>
        <path stroke="#343951" stroke-linecap="round" stroke-linejoin="round" stroke-width="1.267" d="M35.366 40.252c-4.1.297-7.665-2.775-7.963-6.862-.297-4.086 2.786-7.639 6.887-7.935 4.1-.296 7.665 2.776 7.962 6.863.298 4.085-2.785 7.638-6.886 7.934zm10.041-8.165c-.424-5.843-5.503-10.236-11.346-9.812-5.843.423-10.236 5.502-9.812 11.345.423 5.843 5.503 10.237 11.346 9.813 5.842-.424 10.236-5.504 9.812-11.346z"/>
        <g transform="translate(32.314 28.512)">
            <mask id="P" fill="#fff">
                <use xlink:href="#O"/>
            </mask>
            <path fill="#343951" d="M-2.965 10.83H8.512V-2.719H-2.965z" mask="url(#P)"/>
        </g>
        <g transform="translate(33.58 29.78)">
            <mask id="R" fill="#fff">
                <use xlink:href="#Q"/>
            </mask>
            <path fill="#FFF" d="M-2.638 4.925h7.564v-7.564h-7.564z" mask="url(#R)"/>
        </g>
        <g transform="translate(27.245 25.344)">
            <mask id="T" fill="#fff">
                <use xlink:href="#S"/>
            </mask>
            <path fill="#5EA5EE" fill-opacity=".28" d="M-3.03 18.096h21.225V-3.077H-3.029z" mask="url(#T)"/>
        </g>
        <g stroke-linecap="round" stroke-linejoin="round">
            <path stroke="#343951" stroke-width="1.267" d="M35.366 40.252c-4.1.297-7.665-2.775-7.963-6.862-.297-4.086 2.786-7.639 6.887-7.935 4.1-.296 7.665 2.776 7.962 6.863.298 4.085-2.785 7.638-6.886 7.934z"/>
            <path stroke="#FFF" stroke-width=".792" d="M30.38 35.74a5.36 5.36 0 0 1-.503-1.002M29.545 33.18a5.339 5.339 0 0 1 1.973-4.483"/>
        </g>
    </g>
</svg>
