<?xml version="1.0" encoding="UTF-8"?>
<svg width="404px" height="404px" viewBox="0 0 404 404" version="1.1" xmlns="http://www.w3.org/2000/svg" xmlns:xlink="http://www.w3.org/1999/xlink">
    <title>gameslot-thumb</title>
    <defs>
        <linearGradient x1="50.1522894%" y1="31.2631593%" x2="70.2167666%" y2="80.2729243%" id="linearGradient-1">
            <stop stop-color="#FFFFFF" offset="0%"></stop>
            <stop stop-color="#FF0000" stop-opacity="0" offset="100%"></stop>
        </linearGradient>
    </defs>
    <g id="Page-1" stroke="none" stroke-width="1" fill="none" fill-rule="evenodd" stroke-linejoin="round">
        <g id="gameslot-thumb" transform="translate(2.146800, 2.282630)" fill-rule="nonzero" stroke="#000000">
            <g id="g4498" transform="translate(0.000000, 0.000020)" fill="#000000">
                <circle id="circle4500" stroke-width="2.84960508" cx="199.9004" cy="199.89854" r="189.97368"></circle>
                <path d="M199.9942,1.13686838e-13 C94.5245,1.13686838e-13 8.1302,81.64094 0.543,185.17384 L109.6817,185.17384 C116.945575,140.657777 155.393296,107.96089 200.4981,107.94134 C245.695092,108.006425 284.159714,140.872452 291.2754,185.50584 L291.3474,185.50584 L291.3474,185.17384 L399.2576,185.17384 C390.5833,94.98024 304.6913,1.13686838e-13 199.9939,1.13686838e-13 L199.9942,1.13686838e-13 Z" id="path4502" stroke-width="3"></path>
                <path d="M199.9004,131.75684 C162.267468,131.75684 131.7598,162.264508 131.7598,199.89744 C131.7598,217.969768 138.93824,235.302054 151.717118,248.081307 C164.495996,260.860561 181.828072,268.04004 199.9004,268.04004 C217.972745,268.04004 235.304847,260.860599 248.083746,248.081343 C260.862646,235.302087 268.0411,217.969785 268.0411,199.89744 C268.0411,162.264469 237.533371,131.75684 199.9004,131.75684 L199.9004,131.75684 Z M199.9004,175.24714 C213.514958,175.246576 224.552204,186.282882 224.5528,199.89744 C224.5528,206.435746 221.955859,212.706338 217.332578,217.329618 C212.709298,221.952899 206.438706,224.54984 199.9004,224.54984 C186.285842,224.549244 175.249536,213.511998 175.2501,199.89744 C175.250696,186.283702 186.286662,175.247736 199.9004,175.24714 L199.9004,175.24714 Z" id="path4504" stroke-width="3"></path>
                <path d="M0,205.42784 C2.9823,313.28034 91.3447,399.79694 199.918,399.79694 C308.1816,399.79694 396.3418,298.23644 399.8008,205.42784 L292.2833,205.42784 C289.308109,253.983206 249.06833,291.842759 200.4219,291.85554 C151.808646,291.797352 111.619631,253.950127 108.6465,205.42784 L0,205.42784 L0,205.42784 Z" id="path4506" stroke-width="3"></path>
                <path d="M199.9942,1.13686838e-13 C94.5245,1.13686838e-13 8.1302,81.64094 0.543,185.17384 L109.6817,185.17384 C116.945575,140.657777 155.393296,107.96089 200.4981,107.94134 C245.695092,108.006425 284.159714,140.872452 291.2754,185.50584 L291.3474,185.50584 L291.3474,185.17384 L399.2576,185.17384 C390.5833,94.98024 304.6913,1.13686838e-13 199.9939,1.13686838e-13 L199.9942,1.13686838e-13 Z" id="path4508" stroke-width="3"></path>
            </g>
            <g id="g4491" transform="translate(0.000000, 0.000000)">
                <circle id="circle4275" stroke-width="2.84960508" fill="#000000" cx="199.9004" cy="199.89854" r="189.97368"></circle>
                <path d="M199.9942,1.13686838e-13 C94.5245,1.13686838e-13 8.1302,81.64094 0.543,185.17384 L109.6817,185.17384 C116.945575,140.657777 155.393296,107.96089 200.4981,107.94134 C245.695092,108.006425 284.159714,140.872452 291.2754,185.50584 L291.3474,185.50584 L291.3474,185.17384 L399.2576,185.17384 C390.5833,94.98024 304.6913,1.13686838e-13 199.9939,1.13686838e-13 L199.9942,1.13686838e-13 Z" id="path4277" stroke-width="3" fill="#FF0000"></path>
                <path d="M199.9004,131.75684 C162.267468,131.75684 131.7598,162.264508 131.7598,199.89744 C131.7598,217.969768 138.93824,235.302054 151.717118,248.081307 C164.495996,260.860561 181.828072,268.04004 199.9004,268.04004 C217.972745,268.04004 235.304847,260.860599 248.083746,248.081343 C260.862646,235.302087 268.0411,217.969785 268.0411,199.89744 C268.0411,162.264469 237.533371,131.75684 199.9004,131.75684 L199.9004,131.75684 Z M199.9004,175.24714 C213.514958,175.246576 224.552204,186.282882 224.5528,199.89744 C224.5528,206.435746 221.955859,212.706338 217.332578,217.329618 C212.709298,221.952899 206.438706,224.54984 199.9004,224.54984 C186.285842,224.549244 175.249536,213.511998 175.2501,199.89744 C175.250696,186.283702 186.286662,175.247736 199.9004,175.24714 L199.9004,175.24714 Z" id="path4279" stroke-width="3" fill="#F2F2F2"></path>
                <path d="M0,205.42784 C2.9823,313.28034 91.3447,399.79694 199.918,399.79694 C308.1816,399.79694 396.3418,298.23644 399.8008,205.42784 L292.2833,205.42784 C289.308109,253.983206 249.06833,291.842759 200.4219,291.85554 C151.808646,291.797352 111.619631,253.950127 108.6465,205.42784 L0,205.42784 L0,205.42784 Z" id="path4281" stroke-width="3" fill="#F9F9F9"></path>
                <path d="M199.9942,1.13686838e-13 C94.5245,1.13686838e-13 8.1302,81.64094 0.543,185.17384 L109.6817,185.17384 C116.945575,140.657777 155.393296,107.96089 200.4981,107.94134 C245.695092,108.006425 284.159714,140.872452 291.2754,185.50584 L291.3474,185.50584 L291.3474,185.17384 L399.2576,185.17384 C390.5833,94.98024 304.6913,1.13686838e-13 199.9939,1.13686838e-13 L199.9942,1.13686838e-13 Z" id="path4479" stroke-width="3" fill="url(#linearGradient-1)"></path>
            </g>
        </g>
    </g>
</svg>