<?xml version="1.0" encoding="UTF-8"?>
<svg width="1678px" height="1180px" viewBox="0 0 1678 1180" version="1.1" xmlns="http://www.w3.org/2000/svg" xmlns:xlink="http://www.w3.org/1999/xlink">
    <!-- Generator: Sketch 61.2 (89653) - https://sketch.com -->
    <title>Logo / SVG / Black / Full-colour</title>
    <desc>Created with Sketch.</desc>
    <defs>
        <linearGradient x1="-7.10960293%" y1="43.0398253%" x2="100%" y2="55.5463271%" id="linearGradient-1">
            <stop stop-color="#056DBA" offset="0%"></stop>
            <stop stop-color="#02A3C4" offset="12.2730152%"></stop>
            <stop stop-color="#25D3AC" offset="27.8161951%"></stop>
            <stop stop-color="#F7B735" offset="46.0726351%"></stop>
            <stop stop-color="#FF6D21" offset="59.8289696%"></stop>
            <stop stop-color="#FF1900" offset="74.3797508%"></stop>
            <stop stop-color="#EB0018" offset="85.3278083%"></stop>
            <stop stop-color="#C62482" offset="100%"></stop>
        </linearGradient>
    </defs>
    <g id="Logo-/-SVG-/-Black-/-Full-colour" stroke="none" stroke-width="1" fill="none" fill-rule="evenodd">
        <rect id="Rectangle" fill="#C62482" opacity="0" x="80" y="80" width="1518" height="1020"></rect>
        <path d="M320,470 L320,547.12963 C313.095974,545.833327 306.839294,545.185185 301.229773,545.185185 C269.730155,545.185185 245.134932,554.367192 227.443366,572.731481 C209.751799,591.095771 200.906149,617.561556 200.906149,652.12963 L200.906149,820 L120,820 L120,473.888889 L197.022654,473.888889 L197.022654,524.444444 C220.323741,488.147967 261.31578,470 320,470 Z M512.504298,470 C546.256577,470 576.063971,477.358245 602.762178,492 C628.628337,506.791664 649.140952,527.480062 663.936963,554 C678.465042,580.50368 685.83528,610.93641 686,645.822381 L686,648 L685.983401,649.005191 C685.878078,654.31371 685.474387,661.399616 684.997135,670 L416.229226,670 C420.829083,695.44193 433.115285,715.383839 453.335244,730 C472.859074,744.817258 497.538314,752.175503 526.544413,752 C564.632667,752.175503 595.615263,739.805121 619.810888,715 L662.934097,764 C647.538385,782.67529 628.094135,796.538649 604.767908,806 C581.085353,815.307786 554.589891,820 525.541547,820 C487.495538,820 454.376212,812.535114 425.255014,798 C397.110968,782.675123 374.995804,761.880085 359.065903,735 C343.799067,708.558672 336,678.379206 336,645 C336,611.407512 343.585394,581.441328 359.065903,555 C373.927426,528.119915 394.974224,507.324877 422.246418,492 C448.820647,477.464886 479.162224,470 512.504298,470 Z M1389.27013,360 C1416.7479,360 1443.79593,363.407373 1470.41503,370.222222 C1497.03412,377.037071 1520.00348,386.833269 1539.32379,399.611111 L1512.9195,464.138889 C1493.16985,452.638831 1472.56182,443.907437 1451.09481,437.944444 C1429.6278,431.981452 1408.80511,429 1388.62612,429 C1355.56692,429 1330.98756,434.536982 1314.8873,445.611111 C1298.78704,456.685241 1290.73703,471.379538 1290.73703,489.694444 C1290.73703,502.472286 1295.35237,512.907367 1304.58318,521 C1313.814,529.092633 1325.51335,535.481458 1339.68157,540.166667 L1341.74065,540.840328 C1355.70149,545.360374 1374.33518,550.459848 1397.64222,556.138889 L1400.53911,556.806364 C1432.7186,564.268821 1459.23035,572.032367 1480.07513,580.097222 C1501.54215,588.402819 1519.89617,601.073989 1535.13775,618.111111 C1550.37932,635.148233 1558,658.148003 1558,687.111111 C1558,711.814938 1551.23799,734.175826 1537.71377,754.194444 C1524.18956,774.213063 1503.68887,790.185126 1476.21109,802.111111 C1448.73332,814.037097 1415.24528,820 1375.74597,820 C1340.96941,820 1307.37404,815.101901 1274.95886,805.305556 C1242.54367,795.50921 1216.89097,782.518599 1198,766.333333 L1226.98032,701.805556 C1245.44195,716.287109 1268.08931,728.106436 1294.92308,737.263889 C1321.75684,746.421342 1348.69754,751 1375.74597,751 C1409.23451,751 1434.24321,745.675979 1450.77281,735.027778 C1467.30241,724.379576 1475.56708,710.324161 1475.56708,692.861111 C1475.56708,680.083269 1470.95175,669.541708 1461.72093,661.236111 C1452.49011,652.930514 1440.79077,646.435209 1426.62254,641.75 L1425.25761,641.301858 C1411.22245,636.726114 1392.35739,631.551469 1368.6619,625.777778 L1364.46048,624.780056 C1332.04085,617.020007 1305.64193,609.260059 1285.26297,601.5 C1264.01063,593.407367 1245.76394,580.736197 1230.52236,563.486111 C1215.28078,546.236025 1207.66011,522.916814 1207.66011,493.527778 C1207.66011,468.823951 1214.42211,446.356583 1227.94633,426.125 C1241.47055,405.893417 1261.86391,389.814874 1289.12701,377.888889 C1316.39012,365.962903 1349.77082,360 1389.27013,360 Z M952,360 C1079.02549,360 1182,462.974508 1182,590 C1182,717.025492 1079.02549,820 952,820 C824.974508,820 722,717.025492 722,590 C722,462.974508 824.974508,360 952,360 Z M952,435.163399 C866.486106,435.163399 797.163399,504.486106 797.163399,590 C797.163399,675.513894 866.486106,744.836601 952,744.836601 C1037.51389,744.836601 1106.8366,675.513894 1106.8366,590 C1106.8366,504.486106 1037.51389,435.163399 952,435.163399 Z M512.504298,534 C487.423086,534 465.900364,541.388095 447.922698,556.48809 L447.318052,557 C429.887523,571.775717 419.078972,591.887054 415.226361,617 L609.782235,617 C606.357692,592.312697 595.870187,572.307769 578.69341,557 C560.768621,541.661462 538.937487,534 512.504298,534 Z" id="Shape" fill="#000000" fill-rule="nonzero"></path>
        <path d="M975.204089,900.002192 C935.855699,993.989636 843.232361,1060 735.509554,1060 C627.02063,1060 534.207105,993.989636 494.811502,900.002192 L975.204089,900.002192 Z" id="Path" fill="url(#linearGradient-1)" fill-rule="nonzero"></path>
    </g>
</svg>